Coordinates
version=1
nRows=19
nColumns=34
inDegrees=yes

Units are S.I. units (second, meters, Newtons, ...)
If the header above contains a line with 'inDegrees', this indicates whether rotational values are in degrees (yes) or radians (no).

endheader
time	pelvis_tilt	pelvis_list	pelvis_rotation	pelvis_tx	pelvis_ty	pelvis_tz	hip_flexion_r	hip_adduction_r	hip_rotation_r	knee_angle_r	ankle_angle_r	subtalar_angle_r	mtp_angle_r	hip_flexion_l	hip_adduction_l	hip_rotation_l	knee_angle_l	ankle_angle_l	subtalar_angle_l	mtp_angle_l	lumbar_extension	lumbar_bending	lumbar_rotation	arm_flex_r	arm_add_r	arm_rot_r	elbow_flex_r	pro_sup_r	arm_flex_l	arm_add_l	arm_rot_l	elbow_flex_l	pro_sup_l
      1.16666670	     -3.60086315	      1.99545894	     -1.84714547	      1.80616843	      0.88021165	     -0.18964692	      4.96385942	    -12.07777765	      0.36826217	      4.75451963	      3.57136520	    -14.24340670	      0.00000000	      2.45618765	     -1.32100640	     -3.22889453	      1.86433875	      4.22980546	     -4.98592583	      0.00000000	    -12.28363263	     -2.44692053	     -1.78417184	     11.98377904	     -2.81415872	     39.24079415	     77.17222590	     81.75100567	     11.55488477	     -9.63795663	     32.62887285	     61.67380588	     82.65110536
      1.18333330	     -3.64317623	      1.86686752	     -1.68665389	      1.80548923	      0.88131547	     -0.19155352	      5.03671465	    -11.91440908	      0.52335099	      4.85430318	      3.56925740	    -14.14757912	      0.00000000	      2.50713157	     -1.31065442	     -3.18653193	      1.69383816	      4.26252905	     -4.96311708	      0.00000000	    -12.30072108	     -2.47472600	     -1.84363643	     11.97784771	     -2.81448099	     39.21930167	     77.16736423	     81.73503151	     11.69493883	     -9.61970561	     32.60982255	     61.71042073	     82.64025018
      1.20000000	     -3.72085802	      1.65586417	     -1.70178893	      1.80425065	      0.88241035	     -0.19266091	      5.23493256	    -11.57655045	      0.77366300	      5.09923442	      3.60480147	    -13.97972637	      0.00000000	      2.51808310	     -1.43681790	     -2.96994074	      1.42332008	      4.26679222	     -4.83022223	      0.00000000	    -12.30697031	     -2.44897427	     -1.99839471	     11.95381902	     -2.84295506	     39.16234616	     77.14360667	     81.70699090	     11.96311771	     -9.55708585	     32.58127778	     61.78963696	     82.62354995
      1.21666670	     -3.82046533	      1.42010874	     -1.75116545	      1.80269508	      0.88350286	     -0.19307484	      5.51199421	    -11.16333065	      0.99604825	      5.53746320	      3.75728689	    -13.73471172	      0.00000000	      2.52236578	     -1.61964040	     -2.68858962	      1.09485495	      4.17341778	     -4.59522119	      0.00000000	    -12.28092698	     -2.19147963	     -1.90255905	     11.99151779	     -2.81210331	     39.05855438	     77.09388516	     81.65296020	     12.11143818	     -9.56933775	     32.56786568	     61.85462353	     82.59524552
      1.23333330	     -4.18136385	      1.33594995	     -1.90408933	      1.80145274	      0.88369450	     -0.19296697	      6.16694357	    -10.90725213	      0.56182455	      6.18607219	      4.91395644	    -11.83970164	      0.00000000	      2.86532439	     -1.67259516	     -2.91810254	      0.87519400	      4.01620039	     -4.24190029	      0.00000000	    -11.80957831	     -2.19045267	     -1.46831959	     11.70086658	     -2.67857131	     38.41067688	     76.73363807	     81.10512173	     12.26851848	     -9.46445712	     32.89303066	     61.76488058	     82.32251667
      1.25000000	     -4.23378506	      1.15649413	     -1.91118221	      1.80060507	      0.88308141	     -0.19294075	      6.16860694	    -10.46945672	      0.57150525	      6.36405273	      4.80033242	    -11.58584516	      0.00000000	      2.91825279	     -1.85456357	     -2.83395169	      0.68708510	      3.87880382	     -4.09394586	      0.00000000	    -11.82434607	     -2.04670338	     -1.48280503	     11.71471974	     -2.70189842	     38.37114129	     76.67830742	     81.04867591	     12.45769984	     -9.45244509	     32.89412645	     61.77249396	     82.29326004
      1.26666670	     -4.26561179	      1.09868096	     -1.90137356	      1.80045557	      0.88256285	     -0.19316755	      6.07313022	    -10.15937487	      0.57884645	      6.47134339	      4.73037347	    -11.43108677	      0.00000000	      2.98352664	     -1.91864460	     -2.83543538	      0.58786604	      3.81334523	     -4.04236853	      0.00000000	    -11.78729487	     -2.12946389	     -1.48881016	     11.74026443	     -2.71080965	     38.35004052	     76.64880292	     81.03061396	     12.49484216	     -9.39911560	     32.90916164	     61.78654910	     82.28557987
      1.28333330	     -4.29192273	      1.15813256	     -1.96327416	      1.80070358	      0.88218598	     -0.19369191	      5.97448730	    -10.01921722	      0.56732644	      6.52035611	      4.72267456	    -11.41772014	      0.00000000	      3.05942871	     -1.84035699	     -2.83163037	      0.55228744	      3.80665887	     -4.03492580	      0.00000000	    -11.78585318	     -2.12404398	     -1.48932804	     11.74184679	     -2.71540832	     38.34721516	     76.64417670	     81.02929084	     12.49798375	     -9.39379395	     32.91016560	     61.78837779	     82.28515038
      1.30000000	     -4.43869676	      0.88756930	     -2.13840796	      1.80170154	      0.88163510	     -0.19360495	      5.70345706	     -9.52841449	      0.26712653	      5.95067449	      4.35257741	    -10.23013147	      0.00000000	      3.01127020	     -2.13627558	     -3.09178847	      0.16941211	      3.26602629	     -3.74292647	      0.00000000	    -11.42282451	     -1.69662881	     -1.08143886	     11.67424977	     -2.97710809	     38.20755952	     76.16509721	     80.92204549	     12.30920996	     -9.08340573	     33.01075034	     61.85820977	     82.25311278
      1.31666670	     -4.46325027	      0.94317496	     -2.17074019	      1.80188481	      0.88120060	     -0.19252690	      5.62660098	     -9.43992027	      0.25664954	      5.97998572	      4.35444052	    -10.22318700	      0.00000000	      3.05962601	     -2.08350848	     -3.09356281	      0.14867440	      3.26654689	     -3.74287262	      0.00000000	    -11.42192828	     -1.69777772	     -1.08269217	     11.67443957	     -2.98078966	     38.20552847	     76.16190256	     80.92101833	     12.30489296	     -9.07672841	     33.01332267	     61.85740007	     82.25291724
      1.33333330	     -4.46498522	      0.99557339	     -2.16823232	      1.80298565	      0.88134490	     -0.19106689	      4.91457419	     -9.36212180	      0.01988824	      4.91613472	      4.53207572	     -9.25219451	      0.00000000	      2.90002281	     -2.01329578	     -3.37783470	      0.00000000	      3.19157568	     -3.72000341	      0.00000000	    -11.00008411	     -1.79678421	     -0.90342670	     11.35116233	     -3.11019680	     38.12582476	     75.70936040	     80.80549993	     11.95632943	     -8.88075340	     33.11829714	     61.72369230	     82.22427246
      1.35000000	     -4.24292622	      0.96006827	     -2.04644749	      1.80284899	      0.88172008	     -0.18965579	      4.17055860	     -9.22935614	     -0.85267322	      4.16749514	      4.98179625	     -7.50988577	      0.00000000	      2.63321554	     -2.04806676	     -3.48961093	      0.00000000	      3.34825404	     -3.45562678	      0.00000000	    -11.05125282	     -1.69285666	     -0.85865567	     11.44206898	     -2.94947874	     37.73232456	     74.94769197	     80.39335713	     11.92676269	     -8.61221434	     33.25051417	     61.19277547	     82.12727383
      1.36666670	     -4.30461087	      1.04930822	     -2.01861241	      1.80262933	      0.88138734	     -0.18814289	      3.84210108	     -9.17899777	     -0.71372992	      3.51641226	      5.21804476	     -7.45673014	      0.00000000	      2.68015454	     -1.96800980	     -3.63269147	      0.00000000	      3.31199432	     -3.49139825	      0.00000000	    -10.82101358	     -1.75063305	     -0.81356590	     11.37589109	     -3.10575205	     37.72282812	     74.93100054	     80.34757444	     11.69867099	     -8.55538349	     33.32835538	     61.19063315	     82.12200762
      1.38333330	     -4.32958000	      1.10393714	     -1.94853222	      1.80286687	      0.88103256	     -0.18674760	      3.43454798	     -9.07905794	     -0.54030288	      2.78610301	      5.29657666	     -7.37033715	      0.00000000	      2.69006534	     -1.95882446	     -3.74318570	      0.00000000	      3.25817424	     -3.47928815	      0.00000000	    -10.56382960	     -1.75517373	     -0.73540036	     11.29621735	     -3.24311455	     37.71969637	     74.89731779	     80.29847322	     11.46072733	     -8.49241109	     33.40272890	     61.19687080	     82.11820128
      1.40000000	     -4.30315268	      1.15694368	     -1.88221711	      1.80375042	      0.88099989	     -0.18566830	      2.99190660	     -8.98923461	     -0.43157984	      2.10756592	      5.28526812	     -7.36050408	      0.00000000	      2.65157260	     -1.96551760	     -3.85987099	      0.00520329	      3.19449220	     -3.43256285	      0.00000000	    -10.34294759	     -1.72403903	     -0.69138770	     11.18947094	     -3.42531192	     37.70488771	     74.85061419	     80.24373245	     11.20832705	     -8.41957691	     33.47595313	     61.20183210	     82.11541563
      1.41666670	     -4.20344355	      1.20469388	     -1.76673320	      1.80483408	      0.88194300	     -0.18449000	      2.38334675	     -8.88834639	     -0.32002385	      1.31534958	      5.02083079	     -7.47976192	      0.00000000	      2.53026871	     -2.00462522	     -3.97276067	      0.00000000	      3.15023361	     -3.26130058	      0.00000000	    -10.21409594	     -1.67597103	     -0.67525400	     11.01729636	     -3.57825324	     37.68667831	     74.80322401	     80.12446494	     11.01358994	     -8.35496391	     33.51208571	     61.21690607	     82.10552407
      1.43333330	     -4.19702555	      1.29794004	     -1.76435296	      1.80508216	      0.88274366	     -0.18278013	      2.35963080	     -8.85024213	     -0.32216926	      1.31242775	      5.02149681	     -7.48381148	      0.00000000	      2.54423064	     -2.02285788	     -3.97597389	      0.00408586	      3.14833555	     -3.26102298	      0.00000000	    -10.20752109	     -1.66556502	     -0.67508886	     11.02061499	     -3.59043893	     37.68217327	     74.80246268	     80.12316905	     11.00232061	     -8.34788721	     33.51563383	     61.21768455	     82.10568013
      1.45000000	     -3.75884795	      1.42132107	     -1.56209000	      1.80626893	      0.88302674	     -0.18123800	      1.12880459	     -8.84887133	      0.06495632	      0.12864611	      4.24057585	     -8.78202491	      0.00000000	      2.15002787	     -1.99763910	     -4.35820810	      0.24210783	      3.23811427	     -2.63285771	      0.00000000	    -10.35008639	     -1.65297772	     -0.67705012	     10.90829651	     -3.85294359	     37.33765754	     74.87831196	     79.61436600	     10.59352571	     -8.27745429	     33.41396866	     61.41607677	     82.09184259
      1.46666670	     -3.76282226	      1.51989775	     -1.55701915	      1.80682725	      0.88270358	     -0.17936107	      1.10257744	     -8.81106151	      0.06603734	      0.13443960	      4.24047978	     -8.78299505	      0.00000000	      2.15467700	     -2.02280395	     -4.36006591	      0.24671856	      3.23552018	     -2.63303538	      0.00000000	    -10.34058861	     -1.64162137	     -0.67795722	     10.90945402	     -3.86577988	     37.33419624	     74.87754324	     79.61327822	     10.58458052	     -8.27055534	     33.41690552	     61.41780793	     82.09209396
